<?xml version="1.0" encoding="utf-8"?>
<!-- Generator: Adobe Illustrator 16.0.0, SVG Export Plug-In . SVG Version: 6.00 Build 0)  -->
<!DOCTYPE svg PUBLIC "-//W3C//DTD SVG 1.1//EN" "http://www.w3.org/Graphics/SVG/1.1/DTD/svg11.dtd">
<svg version="1.1" id="Vrstva_1" xmlns="http://www.w3.org/2000/svg" xmlns:xlink="http://www.w3.org/1999/xlink" x="0px" y="0px"
	 width="204.827px" height="45.354px" viewBox="0 0 204.827 45.354" enable-background="new 0 0 204.827 45.354"
	 xml:space="preserve">
<rect x="-21.004" y="-26.519" fill="#005FAD" width="246.833" height="98.391"/>
<rect x="-21.004" y="-26.519" fill="#FFFFFF" width="246.833" height="98.391"/>
<g>
	<path d="M40.051,7.612c-3.487-4.055-8.3-6.749-13.552-7.588c-1.047-0.166-2.025,0.544-2.195,1.588
		c-0.165,1.044,0.545,2.029,1.59,2.196c9.149,1.462,15.792,9.26,15.792,18.543c0,10.354-8.428,18.782-18.781,18.782
		c-2.576,0-5.067-0.511-7.409-1.519c-0.975-0.417-2.099,0.031-2.517,1.002c-0.419,0.974,0.029,2.1,1.002,2.518
		c2.821,1.217,5.826,1.83,8.924,1.83c12.466,0,22.611-10.147,22.611-22.612C45.516,16.941,43.58,11.704,40.051,7.612"/>
	<path d="M22.905,38.003c2.844,0,5.631-0.774,8.06-2.236c0.908-0.547,1.199-1.723,0.652-2.628c-0.543-0.909-1.72-1.2-2.627-0.653
		c-1.833,1.102-3.935,1.683-6.085,1.683c-6.517,0-11.818-5.299-11.818-11.817c0-6.515,5.301-11.816,11.818-11.816
		c6.515,0,11.813,5.301,11.813,11.816c0,2.111-0.562,4.179-1.627,5.989c-0.536,0.909-0.229,2.085,0.68,2.622
		c0.912,0.537,2.089,0.232,2.626-0.678c1.412-2.395,2.156-5.139,2.156-7.933c0-8.629-7.022-15.648-15.647-15.648
		c-8.629,0-15.65,7.019-15.65,15.648c0,3.663,1.27,7.036,3.387,9.705L8.41,34.293c-2.773-3.361-4.29-7.546-4.29-11.942
		c0-9.131,6.519-16.907,15.495-18.496c1.04-0.184,1.737-1.174,1.553-2.218c-0.186-1.043-1.179-1.739-2.22-1.553
		C8.14,1.994,0.291,11.36,0.291,22.352c0,5.417,1.91,10.569,5.399,14.662l-5.13,5.073c-0.748,0.746-0.748,1.959,0,2.708
		c0.374,0.372,0.866,0.559,1.356,0.559c0.492,0,0.98-0.188,1.354-0.559l10.101-10.046C16.011,36.785,19.315,38.003,22.905,38.003"/>
	<path d="M23.156,17.779c1.648,0,3.182,0.892,3.99,2.335c0.519,0.92,1.685,1.248,2.607,0.731c0.923-0.519,1.25-1.687,0.733-2.611
		c-1.49-2.646-4.3-4.291-7.331-4.291c-4.637,0-8.411,3.771-8.411,8.408c0,4.633,3.773,8.406,8.411,8.406
		c2.986,0,5.773-1.606,7.277-4.194c0.527-0.918,0.217-2.086-0.699-2.619c-0.912-0.529-2.084-0.22-2.617,0.696
		c-0.818,1.413-2.336,2.284-3.961,2.284c-2.526,0-4.58-2.05-4.58-4.573C18.576,19.829,20.629,17.779,23.156,17.779"/>
	<path d="M53.284,22.472c0-4.635,2.948-7.694,7.373-7.694c3.726,0,6.46,2.346,6.84,5.971h-3.81c-0.268-1.278-1.262-2.375-3.03-2.375
		c-2.119,0-3.514,1.631-3.514,4.099c0,2.463,1.395,4.068,3.514,4.068c1.769,0,2.763-1.1,3.03-2.376h3.81
		c-0.38,3.652-3.114,5.972-6.84,5.972C56.232,30.136,53.284,27.074,53.284,22.472"/>
	<path d="M79.458,22.472c0-2.408-1.42-4.011-3.539-4.011c-2.118,0-3.542,1.603-3.542,4.011c0,2.403,1.424,3.979,3.542,3.979
		C78.038,26.451,79.458,24.875,79.458,22.472 M68.543,22.472c0-4.635,2.949-7.694,7.375-7.694c4.425,0,7.373,3.06,7.373,7.694
		c0,4.602-2.948,7.664-7.373,7.664C71.493,30.136,68.543,27.074,68.543,22.472"/>
	<path d="M85.075,15.253h3.971v1.396h0.052c0.994-1.216,2.574-1.87,4.023-1.87c3.405,0,5.817,2.703,5.817,6.564v8.311H94.89v-7.721
		c0-2.017-1.099-3.351-2.818-3.351c-1.797,0-2.975,1.243-2.975,3.205v7.867h-4.022V15.253z"/>
	<path d="M102.646,24.343v-5.494H99.67v-3.596h2.976v-4.572h4.023v4.572h4.236v3.596h-4.236v4.988c0,1.572,0.859,2.433,2.415,2.433
		c0.562,0,1.178-0.091,1.821-0.148v3.654c-0.753,0.238-1.69,0.356-2.55,0.356C104.925,30.132,102.646,27.816,102.646,24.343"/>
	<path d="M112.945,15.253h3.969v1.722h0.053c0.75-1.422,2.063-2.196,3.517-2.196c0.45,0,0.938,0.028,1.391,0.178v4.039
		c-0.483-0.12-0.91-0.177-1.343-0.177c-2.225,0-3.564,1.545-3.564,4.187v6.649h-4.021V15.253z"/>
	<path d="M133.244,22.472c0-2.495-1.365-4.219-3.38-4.219c-2.036,0-3.458,1.724-3.458,4.219c0,2.463,1.422,4.186,3.458,4.186
		C131.878,26.658,133.244,24.936,133.244,22.472 M122.465,22.472c0-4.515,2.763-7.694,6.672-7.694c1.454,0,3.008,0.536,4.135,1.871
		h0.055v-1.395h3.968v14.403h-3.968v-1.394h-0.055c-1.153,1.335-2.681,1.872-4.135,1.872
		C125.228,30.136,122.465,26.953,122.465,22.472"/>
	<path d="M139.063,22.472c0-4.635,2.95-7.694,7.377-7.694c3.726,0,6.461,2.346,6.837,5.971h-3.809
		c-0.267-1.278-1.261-2.375-3.028-2.375c-2.119,0-3.516,1.631-3.516,4.099c0,2.463,1.396,4.068,3.516,4.068
		c1.768,0,2.762-1.1,3.028-2.376h3.809c-0.376,3.652-3.111,5.972-6.837,5.972C142.013,30.136,139.063,27.074,139.063,22.472"/>
	<path d="M156.773,24.343v-5.494h-2.974v-3.596h2.974v-4.572h4.021v4.572h4.24v3.596h-4.24v4.988c0,1.572,0.856,2.433,2.418,2.433
		c0.561,0,1.18-0.091,1.822-0.148v3.654c-0.753,0.238-1.688,0.356-2.55,0.356C159.053,30.132,156.773,27.816,156.773,24.343"/>
	<path d="M176.954,22.472c0-2.408-1.425-4.011-3.539-4.011c-2.116,0-3.542,1.603-3.542,4.011c0,2.403,1.426,3.979,3.542,3.979
		C175.529,26.451,176.954,24.875,176.954,22.472 M166.038,22.472c0-4.635,2.952-7.694,7.377-7.694c4.424,0,7.377,3.06,7.377,7.694
		c0,4.602-2.953,7.664-7.377,7.664C168.99,30.136,166.038,27.074,166.038,22.472"/>
	<path d="M182.572,15.253h3.97v1.722h0.05c0.754-1.422,2.067-2.196,3.517-2.196c0.458,0,0.938,0.028,1.396,0.178v4.039
		c-0.48-0.12-0.912-0.177-1.341-0.177c-2.229,0-3.571,1.545-3.571,4.187v6.649h-4.02V15.253z"/>
	<path d="M191.929,24.875h3.593c0.217,1.368,1.421,2.049,3.164,2.049c1.341,0,2.173-0.533,2.173-1.307
		c0-2.818-8.368,0.03-8.368-6.175c0-2.794,2.359-4.665,5.955-4.665c3.378,0,5.979,1.666,6.272,4.872h-3.645
		c-0.188-1.188-1.448-1.813-2.708-1.813c-1.074,0-1.986,0.446-1.986,1.307c0,2.881,8.447,0.119,8.447,6.265
		c0,2.971-2.358,4.723-6.248,4.723C194.613,30.132,192.063,28.053,191.929,24.875"/>
</g>
</svg>
