<?xml version="1.0" encoding="utf-8"?>
<!-- Generator: Adobe Illustrator 16.0.0, SVG Export Plug-In . SVG Version: 6.00 Build 0)  -->
<!DOCTYPE svg PUBLIC "-//W3C//DTD SVG 1.1//EN" "http://www.w3.org/Graphics/SVG/1.1/DTD/svg11.dtd">
<svg version="1.1" xmlns="http://www.w3.org/2000/svg" xmlns:xlink="http://www.w3.org/1999/xlink" x="0px" y="0px"
	 width="252.97px" height="47.077px" viewBox="0 0 252.97 47.077" enable-background="new 0 0 252.97 47.077" xml:space="preserve">
<g id="Vrstva_2" display="none">
	<rect x="-22.209" y="-23.274" display="inline" width="300.47" height="93.54"/>
</g>
<g id="Vrstva_1">
	<g>
		<path d="M5.157,25.526V4.978h30.384v21.251h-15.16v13.772l-0.067,0.065L5.157,25.526z M0,0v27.596l20.305,19.481l20.392-19.475V0
			H0z"/>
		<path d="M64.575,11.686H53.154v23.767h6.075v-6.789h5.346c6.844,0,10.766-3.194,10.766-8.729
			C75.341,14.674,71.419,11.686,64.575,11.686z M64.268,24.182h-5.039v-8.049h5.039c3.383,0,5.306,1.325,5.306,3.972
			C69.574,22.822,67.651,24.182,64.268,24.182z"/>
		<path d="M101.13,19.936c0-5.262-4-8.25-11.037-8.25H78.405v23.767h6.075v-6.788h5.613h0.578l4.269,6.788h6.881l-5.729-7.843
			C99.361,26.252,101.13,23.604,101.13,19.936z M90.093,24.182H84.48v-8.048h5.613c3.345,0,5.268,1.324,5.268,3.971
			C95.361,22.823,93.438,24.182,90.093,24.182z"/>
		<rect x="105.408" y="11.686" width="6.077" height="23.767"/>
		<polygon points="135.338,26.965 122.263,11.686 116.726,11.686 116.726,35.452 122.534,35.452 122.534,20.208 135.569,35.452 
			141.103,35.452 141.103,11.686 135.338,11.686 		"/>
		<path d="M159.047,30.802c-4.614,0-8.19-3.191-8.19-7.334c0-4.142,3.576-7.3,8.19-7.3c2.5,0,5.154,1.222,7,3.09l3.536-3.803
			c-2.655-2.411-6.727-3.939-10.612-3.939c-8.152,0-14.343,5.16-14.343,12.02c0,6.895,6.075,12.155,14.111,12.155
			c3.923,0,8.037-1.662,10.882-4.244l-3.574-3.429C164.125,29.715,161.47,30.802,159.047,30.802z"/>
		<rect x="172.434" y="11.686" width="6.074" height="23.767"/>
		<path d="M195.174,11.686h-11.42v23.767h6.073v-6.789h5.347c6.844,0,10.766-3.194,10.766-8.729
			C205.94,14.674,202.018,11.686,195.174,11.686z M194.866,24.182h-5.038v-8.049h5.038c3.385,0,5.309,1.325,5.309,3.972
			C200.174,22.822,198.25,24.182,194.866,24.182z"/>
		<path d="M215.574,11.686l-11.689,23.767h6.268l2.115-4.617h12.459l2.116,4.617h6.498l-11.498-23.767H215.574z M214.267,26.523
			l4.269-9.235l4.23,9.235H214.267z"/>
		<polygon points="241.435,30.767 241.435,11.686 235.358,11.686 235.358,35.453 252.97,35.453 252.97,30.767 		"/>
	</g>
</g>
</svg>
