<?xml version="1.0" standalone="no"?>
<!DOCTYPE svg PUBLIC "-//W3C//DTD SVG 20010904//EN"
 "http://www.w3.org/TR/2001/REC-SVG-20010904/DTD/svg10.dtd">
<svg version="1.0" xmlns="http://www.w3.org/2000/svg"
 width="592.000000pt" height="592.000000pt" viewBox="0 0 592.000000 592.000000"
 preserveAspectRatio="xMidYMid meet">
<metadata>
Created by potrace 1.14, written by Peter Selinger 2001-2017
</metadata>
<g transform="translate(0.000000,592.000000) scale(0.100000,-0.100000)"
fill="#000000" stroke="none">
<path d="M2690 5689 c-36 -5 -86 -11 -112 -13 -138 -14 -408 -86 -497 -132
-14 -8 -30 -14 -35 -14 -13 0 -241 -114 -244 -122 -2 -5 -8 -8 -13 -8 -16 0
-169 -99 -269 -174 -90 -67 -202 -175 -493 -478 -71 -73 -153 -153 -184 -178
-60 -49 -81 -66 -111 -91 -10 -9 -46 -36 -80 -59 -40 -28 -62 -51 -63 -64 -3
-65 -4 -232 -1 -239 5 -11 186 117 286 203 49 42 98 88 184 173 l83 81 64 -64
c36 -36 65 -68 65 -73 0 -9 -119 -128 -226 -227 -107 -98 -240 -197 -421 -314
-18 -12 -33 -28 -34 -36 -3 -44 -4 -207 -1 -217 2 -7 36 9 85 39 79 48 267
176 277 188 3 3 37 30 75 60 39 30 72 57 75 60 3 3 37 32 75 65 39 33 162 150
275 261 301 296 360 348 524 456 80 52 250 143 331 175 118 47 322 101 450
119 71 10 382 12 430 3 22 -4 58 -10 80 -13 23 -4 52 -9 65 -12 14 -3 36 -7
50 -10 37 -7 167 -49 230 -73 62 -25 202 -93 210 -102 3 -3 19 -13 36 -22 58
-30 197 -139 287 -226 199 -192 339 -402 424 -637 57 -155 66 -187 78 -264 11
-77 16 -111 20 -145 6 -48 7 -252 1 -280 -2 -11 -7 -51 -12 -90 -9 -73 -10
-87 -14 -95 -1 -3 -3 -16 -6 -30 -2 -14 -16 -65 -30 -113 -83 -294 -253 -584
-499 -857 -169 -187 -503 -518 -625 -620 -14 -11 -38 -33 -55 -49 -25 -24 -83
-74 -225 -195 -170 -144 -389 -309 -588 -443 -86 -58 -158 -109 -160 -113 -1
-4 77 -83 175 -177 273 -262 317 -303 322 -297 11 10 356 341 395 378 42 39
390 372 456 436 62 59 410 392 460 440 101 96 427 408 490 470 76 74 188 238
257 379 27 53 51 98 55 101 3 3 10 19 14 35 4 17 10 35 14 40 4 6 17 37 29 70
13 33 27 69 31 80 9 20 39 127 45 155 2 8 8 33 14 55 15 58 40 191 46 255 4
30 8 71 10 90 6 47 6 335 0 385 -2 22 -7 65 -10 95 -9 86 -38 238 -58 310 -4
14 -13 43 -19 65 -5 22 -13 47 -16 55 -3 8 -6 20 -7 25 -2 6 -18 51 -38 100
-214 553 -615 989 -1142 1239 -175 84 -430 179 -507 190 -18 3 -49 8 -68 11
-19 3 -57 8 -85 11 -27 3 -68 8 -90 11 -71 9 -468 10 -535 2z m450 -203 c47
-3 96 -8 110 -10 14 -2 48 -8 75 -12 28 -4 55 -8 60 -10 6 -1 21 -4 35 -7 81
-16 208 -55 316 -98 313 -125 555 -294 789 -551 137 -151 261 -343 344 -535
24 -54 47 -106 52 -115 5 -10 9 -22 9 -27 0 -5 5 -22 12 -38 6 -15 12 -32 14
-38 37 -140 64 -247 68 -275 2 -19 5 -35 6 -35 2 0 5 -26 16 -135 13 -141 8
-425 -10 -516 -2 -12 -7 -37 -10 -55 -3 -19 -10 -56 -16 -84 -6 -27 -12 -59
-14 -70 -2 -12 -11 -42 -20 -67 -8 -26 -17 -57 -20 -70 -14 -76 -188 -458
-208 -458 -4 0 -8 -5 -8 -11 0 -20 -130 -201 -219 -304 -42 -49 -272 -293
-361 -384 -105 -107 -92 -105 -166 -27 -58 62 -63 70 -50 85 8 9 70 73 138
142 68 70 155 162 193 204 39 43 81 89 94 104 105 116 219 287 300 449 50 99
119 279 121 314 1 4 7 25 15 47 7 22 16 56 19 76 4 21 8 41 11 44 2 4 7 30 10
58 3 27 8 60 11 74 4 13 8 107 9 209 3 220 -14 362 -66 550 -26 93 -90 264
-101 268 -4 2 -8 10 -8 17 0 31 -118 228 -205 343 -218 287 -489 495 -815 625
-112 45 -308 100 -400 112 -220 30 -482 23 -670 -17 -30 -6 -60 -13 -67 -14
-105 -20 -307 -95 -453 -168 -146 -73 -343 -204 -434 -288 -26 -24 -28 -24
-66 20 -18 20 -46 51 -62 68 l-30 32 29 27 c44 41 199 156 293 215 76 48 306
169 334 175 6 1 25 8 41 15 81 34 254 86 350 106 47 10 73 14 115 20 25 3 54
8 65 10 11 3 70 7 130 11 61 3 111 7 113 8 3 2 37 0 182 -9z m638 -4045 c9
-10 39 -41 67 -70 l50 -52 -40 -36 c-22 -20 -78 -71 -125 -113 -135 -123 -238
-212 -310 -270 -24 -19 -48 -40 -54 -45 -10 -9 -185 -148 -211 -167 -5 -4 -23
-18 -40 -31 -90 -71 -249 -177 -255 -170 -16 17 -100 146 -100 152 0 3 37 31
81 61 45 30 89 62 98 71 9 8 32 26 51 39 64 44 274 212 415 334 129 111 181
158 304 274 25 23 47 42 48 42 2 0 11 -8 21 -19z"/>
<path d="M795 5640 l-210 -5 0 -248 c0 -136 2 -247 6 -247 3 0 41 44 84 98 82
100 290 315 358 369 l39 31 -34 3 c-18 2 -127 2 -243 -1z"/>
<path d="M1475 5642 c-2 -2 -21 -4 -42 -4 -21 0 -48 -8 -63 -19 -14 -11 -34
-26 -45 -34 -173 -128 -422 -372 -540 -528 -28 -36 -55 -66 -61 -67 -6 0 -37
18 -69 41 -31 22 -60 37 -63 34 -3 -3 -6 -104 -6 -224 -1 -252 -11 -238 102
-144 70 58 240 228 426 426 192 205 429 388 631 487 l50 25 -50 2 c-106 5
-267 8 -270 5z"/>
<path d="M4188 5642 c-43 -2 -78 -6 -78 -10 0 -4 19 -18 43 -31 181 -103 408
-263 511 -360 76 -73 186 -187 222 -231 16 -19 35 -41 42 -48 7 -8 25 -30 40
-50 15 -21 30 -39 33 -42 3 -3 38 -54 78 -115 69 -103 173 -304 202 -387 7
-21 15 -38 19 -38 3 0 5 102 5 228 l-1 227 -39 65 c-51 85 -134 201 -193 270
-82 95 -274 283 -362 353 -47 38 -92 74 -100 80 -102 81 -114 86 -199 88 -45
1 -84 -1 -87 -4 -3 -3 -18 -2 -32 1 -15 4 -62 6 -104 4z"/>
<path d="M4907 5642 c-43 -2 -77 -6 -75 -11 2 -4 35 -34 73 -66 118 -99 284
-266 338 -340 28 -38 53 -73 56 -77 3 -4 6 104 6 240 l0 247 -112 5 c-62 3
-123 2 -135 -1 -13 -3 -34 -3 -48 0 -14 3 -60 5 -103 3z"/>
<path d="M2815 4882 c-49 -6 -238 -45 -265 -54 -8 -3 -51 -18 -95 -33 -170
-59 -395 -188 -541 -311 -77 -65 -106 -92 -345 -326 -91 -90 -197 -190 -234
-223 -38 -33 -73 -65 -79 -71 -14 -13 -233 -184 -266 -207 -118 -81 -200 -133
-385 -242 -18 -11 -20 -22 -19 -119 0 -58 3 -108 6 -111 7 -8 235 112 315 167
23 15 46 28 51 28 6 0 12 3 14 8 2 4 23 21 48 37 25 17 89 63 142 103 54 39
100 72 102 72 8 0 120 -150 115 -154 -222 -173 -428 -305 -670 -427 -66 -33
-119 -63 -120 -67 -3 -24 -4 -188 -2 -194 2 -4 20 0 41 9 20 9 57 25 82 36 44
20 246 118 299 146 14 8 57 34 94 57 37 24 70 44 72 44 21 0 390 280 525 399
41 36 90 80 109 96 69 61 228 214 380 366 86 86 181 174 211 196 70 51 226
126 305 146 96 26 115 28 220 31 381 12 716 -207 855 -559 32 -82 41 -118 55
-226 37 -274 -74 -578 -300 -825 -5 -6 -39 -44 -75 -84 -81 -92 -280 -291
-390 -390 -46 -41 -88 -80 -94 -85 -29 -27 -261 -219 -346 -286 -194 -152
-501 -367 -703 -489 -49 -30 -90 -57 -93 -62 -3 -4 21 -34 54 -65 108 -105 90
-100 168 -51 38 23 71 46 72 50 2 5 8 8 12 8 12 0 104 62 108 72 2 4 8 8 13 8
14 0 276 189 411 297 37 29 69 53 72 53 3 0 33 -34 66 -76 l60 -75 -83 -62
c-45 -34 -84 -64 -87 -67 -3 -4 -36 -28 -75 -55 -38 -27 -74 -53 -80 -59 -5
-6 -71 -52 -145 -101 -74 -50 -137 -93 -140 -96 -3 -3 -31 -21 -62 -40 -32
-18 -58 -36 -58 -40 0 -3 35 -40 77 -82 68 -67 79 -74 97 -65 70 37 385 255
515 356 509 398 1059 925 1288 1235 29 40 57 77 62 83 23 28 157 273 166 304
4 12 17 47 30 76 12 29 51 160 61 207 27 130 35 195 36 312 1 87 -8 214 -17
245 -2 8 -6 27 -9 42 -29 168 -140 420 -248 563 -108 142 -236 270 -358 357
-85 62 -224 141 -290 166 -56 21 -183 63 -205 68 -11 2 -40 8 -65 13 -25 6
-61 13 -80 17 -39 7 -338 12 -385 6z m269 -206 c55 -4 102 -9 105 -11 3 -1 22
-6 41 -9 19 -3 46 -8 60 -12 14 -3 37 -8 53 -11 15 -3 30 -9 33 -14 3 -5 12
-9 20 -9 30 0 201 -85 289 -144 106 -71 261 -222 329 -321 105 -152 180 -332
211 -510 17 -93 28 -338 16 -359 -2 -6 -5 -24 -7 -40 -8 -123 -74 -337 -148
-476 -36 -68 -147 -236 -178 -270 -13 -14 -34 -38 -46 -55 -56 -73 -328 -352
-473 -486 -177 -163 -360 -320 -370 -317 -12 5 -119 139 -119 149 0 5 3 9 8 9
4 0 19 10 32 23 14 12 59 51 100 87 77 66 90 78 224 202 148 136 342 336 446
458 30 36 58 67 61 70 16 14 112 165 142 226 67 131 92 209 122 374 15 86 17
239 4 320 -5 30 -11 69 -13 85 -20 126 -110 319 -204 440 -354 453 -990 540
-1507 207 -101 -65 -153 -111 -399 -356 l-219 -219 -64 67 c-35 37 -63 71 -63
75 0 6 438 447 483 486 29 25 165 122 197 140 79 44 136 75 150 81 8 3 24 9
35 14 22 9 57 22 65 25 3 1 43 13 90 28 47 15 103 29 125 32 22 3 46 8 54 11
8 3 55 7 105 11 50 3 93 7 95 9 2 2 7 2 10 0 3 -2 51 -7 105 -10z"/>
<path d="M2778 4069 c-96 -23 -231 -89 -294 -144 -6 -5 -105 -102 -220 -215
-228 -223 -304 -293 -474 -440 -140 -120 -448 -350 -469 -350 -5 0 -11 -4 -13
-8 -9 -24 -395 -236 -538 -296 -82 -34 -155 -67 -169 -75 -9 -4 -15 -24 -15
-49 -1 -39 3 -46 53 -90 29 -26 61 -45 69 -44 9 2 89 39 177 82 145 71 204
102 348 184 44 25 48 25 54 9 4 -10 24 -45 45 -78 21 -33 38 -64 38 -70 -1
-13 -114 -78 -330 -188 -96 -49 -177 -91 -179 -93 -2 -2 34 -39 80 -83 l84
-80 125 66 c158 83 455 254 495 285 6 4 60 40 120 80 61 40 112 75 115 78 3 3
28 21 55 40 28 19 57 40 65 47 8 6 60 46 115 89 55 42 102 80 105 83 3 3 34
31 70 61 36 30 80 69 99 85 54 46 369 362 431 432 l55 62 70 -61 c39 -34 70
-65 70 -69 0 -28 -385 -416 -575 -579 -41 -36 -77 -67 -80 -70 -16 -17 -249
-196 -330 -254 -52 -37 -102 -72 -110 -79 -70 -57 -537 -334 -677 -402 -34
-16 -62 -33 -62 -36 -1 -6 165 -169 173 -169 6 0 270 153 359 207 l58 36 17
-24 c9 -13 34 -50 54 -83 l37 -59 -28 -16 c-15 -9 -88 -52 -162 -96 -74 -44
-147 -87 -162 -95 l-28 -14 63 -61 c35 -33 76 -71 90 -84 l27 -23 51 31 c27
17 55 31 60 31 6 0 10 5 10 10 0 6 5 10 11 10 13 0 408 261 432 285 9 8 20 15
26 15 6 0 11 4 11 9 0 5 8 12 18 15 9 3 28 16 42 28 14 13 41 34 60 48 19 13
40 28 45 32 6 5 51 40 100 79 50 39 99 78 110 87 11 9 45 37 75 62 30 25 64
54 76 65 11 11 50 45 85 75 112 96 435 423 519 527 55 66 110 143 110 152 0 6
4 11 9 11 10 0 67 122 86 186 24 83 28 115 29 224 0 203 -69 367 -214 507 -69
67 -226 149 -320 168 -80 17 -254 14 -332 -6z m400 -240 c235 -115 331 -407
217 -658 -50 -108 -192 -280 -415 -501 -152 -150 -185 -181 -285 -265 -82 -69
-93 -78 -145 -120 -25 -20 -54 -43 -64 -52 -46 -37 -250 -186 -345 -251 l-103
-71 -53 81 -53 82 31 23 c18 12 37 27 44 33 7 5 15 10 18 10 8 0 280 200 380
279 236 188 526 465 685 656 76 90 131 168 134 189 1 6 5 17 10 24 5 8 10 48
11 89 3 86 -16 145 -67 207 -33 40 -101 84 -145 93 -37 8 -115 10 -128 4 -5
-3 -19 -7 -30 -8 -40 -6 -121 -54 -172 -100 -28 -27 -111 -104 -183 -173 -285
-270 -324 -306 -434 -405 -44 -38 -84 -75 -90 -80 -6 -6 -36 -30 -66 -55 -30
-25 -57 -47 -60 -50 -22 -25 -165 -119 -171 -113 -4 4 -30 40 -58 78 -47 65
-50 71 -34 83 140 102 261 202 417 346 146 134 148 136 315 295 201 190 190
180 242 226 72 63 82 70 140 97 163 76 311 78 457 7z"/>
</g>
</svg>
