<?xml version="1.0" encoding="utf-8"?>
<!-- Generator: Adobe Illustrator 16.0.0, SVG Export Plug-In . SVG Version: 6.00 Build 0)  -->
<!DOCTYPE svg PUBLIC "-//W3C//DTD SVG 1.1//EN" "http://www.w3.org/Graphics/SVG/1.1/DTD/svg11.dtd">
<svg version="1.1" id="Vrstva_1" xmlns="http://www.w3.org/2000/svg" xmlns:xlink="http://www.w3.org/1999/xlink" x="0px" y="0px"
	 width="18px" height="18px" viewBox="0 0 18 18" enable-background="new 0 0 18 18" xml:space="preserve">
<title></title>
<g id="Layer_15">
	<path fill="#F55B30" d="M9,17.438c-4.66,0-8.438-3.777-8.438-8.438S4.34,0.563,9,0.563S17.438,4.34,17.438,9S13.66,17.438,9,17.438
		z M9,1.688C4.961,1.688,1.688,4.961,1.688,9c0,4.039,3.274,7.313,7.313,7.313c4.039,0,7.313-3.273,7.313-7.313
		C16.313,4.961,13.039,1.688,9,1.688z"/>
	<path fill="#F55B30" d="M11.385,12.184L8.601,9.399C8.495,9.293,8.437,9.149,8.438,9V4.5h1.125v4.27l2.621,2.615L11.385,12.184z"/>
</g>
</svg>
