<?xml version="1.0" encoding="utf-8"?>
<!-- Generator: Adobe Illustrator 16.0.0, SVG Export Plug-In . SVG Version: 6.00 Build 0)  -->
<!DOCTYPE svg PUBLIC "-//W3C//DTD SVG 1.1//EN" "http://www.w3.org/Graphics/SVG/1.1/DTD/svg11.dtd">
<svg version="1.1" id="Vrstva_1" xmlns="http://www.w3.org/2000/svg" xmlns:xlink="http://www.w3.org/1999/xlink" x="0px" y="0px"
	 width="18px" height="18px" viewBox="0 0 18 18" enable-background="new 0 0 18 18" xml:space="preserve">
<title></title>
<g id="about">
	<path fill="#F55B30" d="M9,9c2.175,0,3.938-1.763,3.938-3.938S11.175,1.125,9,1.125S5.063,2.888,5.063,5.063S6.825,9,9,9z M9,2.25
		c1.553,0,2.813,1.259,2.813,2.813S10.553,7.875,9,7.875c-1.553,0-2.813-1.259-2.813-2.813S7.447,2.25,9,2.25z"/>
	<path fill="#F55B30" d="M9.563,10.125H8.438c-3.417,0-6.188,2.77-6.188,6.188c0,0.311,0.252,0.563,0.563,0.563h12.375
		c0.311,0,0.563-0.252,0.563-0.563C15.75,12.895,12.98,10.125,9.563,10.125z M3.409,15.75c0.287-2.562,2.452-4.499,5.029-4.5h1.125
		c2.577,0.001,4.742,1.938,5.029,4.5H3.409z"/>
</g>
</svg>
