<?xml version="1.0" encoding="utf-8"?>
<!-- Generator: Adobe Illustrator 16.0.0, SVG Export Plug-In . SVG Version: 6.00 Build 0)  -->
<!DOCTYPE svg PUBLIC "-//W3C//DTD SVG 1.1//EN" "http://www.w3.org/Graphics/SVG/1.1/DTD/svg11.dtd">
<svg version="1.1" id="Vrstva_1" xmlns="http://www.w3.org/2000/svg" xmlns:xlink="http://www.w3.org/1999/xlink" x="0px" y="0px"
	 width="18px" height="18px" viewBox="0 0 18 18" enable-background="new 0 0 18 18" xml:space="preserve">
<path fill="#F55B30" d="M7.822,2.352l0.78-0.781c0.331-0.33,0.865-0.33,1.192,0l6.834,6.831c0.33,0.331,0.33,0.865,0,1.191
	l-6.834,6.835c-0.331,0.33-0.865,0.33-1.192,0l-0.78-0.78c-0.334-0.334-0.327-0.879,0.014-1.206l4.236-4.036H1.969
	c-0.468,0-0.844-0.376-0.844-0.844V8.438c0-0.468,0.376-0.844,0.844-0.844h10.104L7.836,3.558C7.492,3.231,7.485,2.686,7.822,2.352z
	"/>
</svg>
