<?xml version="1.0" encoding="utf-8"?>
<!-- Generator: Adobe Illustrator 16.0.0, SVG Export Plug-In . SVG Version: 6.00 Build 0)  -->
<!DOCTYPE svg PUBLIC "-//W3C//DTD SVG 1.1//EN" "http://www.w3.org/Graphics/SVG/1.1/DTD/svg11.dtd">
<svg version="1.1" id="Vrstva_1" xmlns="http://www.w3.org/2000/svg" xmlns:xlink="http://www.w3.org/1999/xlink" x="0px" y="0px"
	 width="18px" height="18px" viewBox="0 0 18 18" enable-background="new 0 0 18 18" xml:space="preserve">
<g id="grid_system">
</g>
<g id="_icons">
	<path fill="#F55B30" d="M3.975,14.025c0.15,0.149,0.3,0.225,0.525,0.225s0.375-0.075,0.525-0.225L9,10.05l3.975,3.976
		c0.15,0.149,0.375,0.225,0.525,0.225s0.375-0.075,0.525-0.225c0.3-0.301,0.3-0.75,0-1.051L10.05,9l3.976-3.975
		c0.3-0.3,0.3-0.75,0-1.05c-0.301-0.3-0.75-0.3-1.051,0L9,7.95L5.025,3.975c-0.3-0.3-0.75-0.3-1.05,0c-0.3,0.3-0.3,0.75,0,1.05
		L7.95,9l-3.975,3.975C3.675,13.275,3.675,13.725,3.975,14.025z"/>
</g>
</svg>
