<?xml version="1.0" encoding="utf-8"?>
<!-- Generator: Adobe Illustrator 16.0.0, SVG Export Plug-In . SVG Version: 6.00 Build 0)  -->
<!DOCTYPE svg PUBLIC "-//W3C//DTD SVG 1.1//EN" "http://www.w3.org/Graphics/SVG/1.1/DTD/svg11.dtd">
<svg version="1.1" id="Vrstva_1" xmlns="http://www.w3.org/2000/svg" xmlns:xlink="http://www.w3.org/1999/xlink" x="0px" y="0px"
	 width="529px" height="159px" viewBox="0 0 529 159" enable-background="new 0 0 529 159" xml:space="preserve">
<g>
	<g>
		<g>
			<path fill="#FFFFFF" d="M206.774,45.789c0,10.15-6.969,16.056-19.081,16.056h-8.458v11.935h-12.382V30.656h20.84
				C199.805,30.656,206.774,36.192,206.774,45.789z M195.001,46.159c0-4.245-2.91-6.521-7.917-6.521h-7.849v13.227h7.849
				C192.091,52.864,195.001,50.526,195.001,46.159z"/>
			<path fill="#FFFFFF" d="M239.845,73.779l-6.902-11.935h-0.271h-8.931v11.935h-12.382V30.656h21.313
				c12.586,0,19.758,5.536,19.758,15.132c0,6.521-2.978,11.319-8.458,13.903l9.878,14.087H239.845z M223.74,52.864h8.999
				c5.007,0,7.917-2.338,7.917-6.705c0-4.245-2.91-6.521-7.917-6.521h-8.999V52.864z"/>
			<path fill="#FFFFFF" d="M271.487,30.656v43.123h-12.382V30.656H271.487z"/>
			<path fill="#FFFFFF" d="M290.549,30.656l21.517,25.96v-25.96h11.502v43.123h-10.826l-21.516-25.837v25.837h-11.57V30.656H290.549
				z"/>
			<path fill="#FFFFFF" d="M354.507,39.884c-7.307,0-12.856,5.229-12.856,12.118c0,6.952,5.549,12.243,12.856,12.243
				c3.925,0,8.458-1.969,11.773-5.045l7.24,7.074c-5.074,4.86-12.653,7.998-19.689,7.998c-14.277,0-24.9-9.474-24.9-22.146
				c0-12.426,10.894-21.777,25.373-21.777c7.038,0,14.413,2.83,19.149,7.382l-7.172,7.813
				C363.168,42.098,358.635,39.884,354.507,39.884z"/>
			<path fill="#FFFFFF" d="M389.891,30.656v43.123h-12.382V30.656H389.891z"/>
			<path fill="#FFFFFF" d="M437.979,45.789c0,10.15-6.969,16.056-19.081,16.056h-8.458v11.935h-12.382V30.656h20.84
				C431.011,30.656,437.979,36.192,437.979,45.789z M426.207,46.159c0-4.245-2.91-6.521-7.917-6.521h-7.849v13.227h7.849
				C423.297,52.864,426.207,50.526,426.207,46.159z"/>
			<path fill="#FFFFFF" d="M470.697,66.151h-20.502l-3.315,7.628h-12.72l20.366-43.123h12.721l19.893,43.123h-13.194L470.697,66.151
				z M467.044,57.539l-6.496-15.379l-6.631,15.379H467.044z"/>
			<path fill="#FFFFFF" d="M502.293,30.656v33.526h20.096v9.597h-32.478V30.656H502.293z"/>
		</g>
	</g>
	<g>
		<path fill="#F55B30" d="M52.395,11h29.406C72.147,9,62.002,9,52.395,11z"/>
		<path fill="#F55B30" d="M125.796,90.777v-0.304c-0.062,0.158-0.116,0.318-0.179,0.475L125.796,90.777z"/>
		<path fill="#F55B30" d="M106.169,24.22C98.983,17.706,90.596,14,81.801,11H52.395c-10.596,3-20.708,8.547-28.592,17.245
			C21.404,30.89,15.607,37.714,8,42.647v6.622c5.917-3.691,10.081-7.802,13.896-11.632l3.396,3.469
			C20.666,45.749,15.607,50.789,8,55.121v6.108c10.988-6.206,19.059-14.474,24.031-19.549c1.254-1.279,2.42-2.381,3.322-3.235
			c17.738-16.777,43.766-17.993,60.494-2.834c17.934,16.262,19.182,40.566,3.074,60.475c-8.222,10.16-27.469,28.377-44.496,38.899
			l12.516,12l46.358-44.301C131.478,78.93,128.716,44.669,106.169,24.22z M64.974,140.036l-2.732-4.085
			c9.565-6.397,18.924-14.684,25.091-20.507l3.375,3.574C84.402,124.969,74.821,133.448,64.974,140.036z M94.995,114.893
			l-3.445-3.503c4.063-3.999,7.912-8.041,11.128-11.686c17.847-20.234,16.397-50.076-3.305-67.937
			c-18.348-16.636-45.923-16.157-65.568,1.14l-3.248-3.689c21.553-18.983,51.881-19.441,72.118-1.093
			c21.352,19.361,23.006,52.928,3.689,74.829C103.07,106.687,99.14,110.813,94.995,114.893z"/>
		<path fill="#F55B30" d="M126,23.616V11h-12.1c0.795,1,1.683,1.392,2.456,2.09C119.916,16.319,124,19.886,126,23.616z"/>
		<path fill="#F55B30" d="M20.16,24.946C25.491,19.066,31.864,14,38.559,11H28.372c-4.328,3-8.313,6.514-11.89,10.457
			c-1.71,1.888-3.503,3.918-4.991,5.977L8,25.063v11.451C12.226,33.579,15.865,29.683,20.16,24.946z"/>
		<path fill="#F55B30" d="M113.053,16.73c-2.28-2.066-4.778-3.73-7.274-5.73H95.617c4.913,3,9.683,5.707,13.956,9.58
			C117.021,27.334,123,35.536,126,44.322v-11.9C123,26.72,118.186,21.384,113.053,16.73z"/>
		<path fill="#F55B30" d="M95.122,92.995c14.36-17.75,13.342-39.348-2.534-53.743c-15.041-13.638-37.658-12.476-53.772,2.764
			c-0.864,0.818-2.071,1.876-3.273,3.105C30.008,50.768,20.679,60.203,8,66.842v5.739c5.917-2.744,11.424-6.321,16.969-10.711
			l2.963,3.853C21.408,70.888,14.762,74.995,8,78.009v5.224C18.143,79.104,29.556,73.43,50.167,52.1
			c8.807-9.114,22.935-9.78,32.056-1.511c8.934,8.104,9.698,21.818,1.724,31.9c-10.176,12.858-27.792,27.413-45.039,37.621
			l4.089,3.913c6.028-3.645,12.487-8.184,19.037-13.401l3.063,3.846c-6.306,5.022-12.539,9.436-18.426,13.07l4.099,3.931
			C67.553,121.396,86.945,103.098,95.122,92.995z M68.9,111.376l-3.142-3.778c8.912-7.415,17.087-15.409,21.869-21.381
			c9.996-12.5,9.209-29.472-1.833-39.478c-10.908-9.889-27.882-9.004-39.484,2.058c-0.708,0.674-1.602,1.589-2.673,2.688
			c-1.983,2.031-4.698,4.81-7.939,7.805l-3.333-3.609c3.147-2.91,5.704-5.526,7.757-7.629c1.121-1.149,2.058-2.106,2.798-2.813
			c13.486-12.86,33.337-13.782,46.175-2.141c12.994,11.774,14.013,31.63,2.371,46.188C86.488,95.503,78.054,103.761,68.9,111.376z"
			/>
		<path fill="#F55B30" d="M80.136,79.439c6.35-8.029,5.864-18.866-1.128-25.211c-7.142-6.475-18.351-5.909-25.305,1.285
			C31.061,78.946,18.143,84.341,8,88.558v2.21l2.712,2.437c3.942-1.717,8.918-4.104,14.508-7.445l2.564,4.217
			c-4.956,2.963-9.357,5.2-13.092,6.902l4.242,4.06C38.08,91.353,52.333,80.475,65.23,65.766l3.698,3.241
			c-12.99,14.814-27.267,25.853-46.222,35.542l4.442,4.26c3.226-1.754,6.782-3.807,10.566-6.186l2.614,4.163
			c-3.35,2.104-6.526,3.96-9.463,5.587l4.382,4.204C52.364,106.652,70.054,92.177,80.136,79.439z M44.31,104.224l-2.713-4.098
			c13.085-8.657,23.816-18.153,31.03-27.458c2.794-3.601,2.622-8.204-0.411-10.95c-3.366-3.053-8.065-1.963-10.973,0.693
			c-1.651,1.51-3.617,3.386-5.744,5.413c-5.756,5.49-12.919,12.323-18.148,15.979l-1.438,0.988l-2.865-3.994l1.478-1.016
			c4.934-3.449,11.947-10.138,17.583-15.514c2.155-2.054,4.146-3.953,5.819-5.484c5.305-4.85,12.701-5.149,17.59-0.707
			c4.905,4.44,5.333,12.01,0.992,17.602C68.97,85.404,57.835,95.273,44.31,104.224z"/>
		<path fill="#F55B30" d="M20.25,11H8v12.691c1.69-1.889,3.087-3.786,4.669-5.533C14.983,15.605,17.633,13,20.25,11z"/>
	</g>
	<g>
		<path fill="#F55B30" d="M181.411,88.898c-6.729,0-12.139,4.761-12.139,10.762c0,5.961,5.41,10.8,12.139,10.8
			c3.28,0,6.475-1.239,8.817-3.252l2.087,2.052c-2.938,2.516-6.942,4.103-11.074,4.103c-8.604,0-15.419-6.039-15.419-13.703
			c0-7.588,6.9-13.588,15.547-13.588c4.088,0,8.05,1.51,10.904,3.948l-2.045,2.245C187.928,90.176,184.691,88.898,181.411,88.898z"
			/>
		<path fill="#F55B30" d="M197.7,120.874c-1.874,0-3.365-0.465-4.728-1.472l1.406-2.4c1.022,0.658,2.044,0.968,3.151,0.968
			c1.747,0,3.194-1.006,4.089-2.942l0.938-1.936l-9.285-20.208h3.492l7.454,16.956l7.113-16.956h3.408l-10.307,23.266
			C203.024,119.248,200.682,120.874,197.7,120.874z"/>
		<path fill="#F55B30" d="M241.075,103.105c0,6.039-4.344,10.258-10.691,10.258c-4.003,0-7.07-1.665-8.731-4.49v4.374h-3.322V84.523
			h3.322V97.26c1.662-2.827,4.728-4.491,8.646-4.491C236.645,92.769,241.075,97.027,241.075,103.105z M237.711,103.028
			c0-4.413-3.323-7.665-8.008-7.665c-4.728,0-8.05,3.213-8.05,7.665c0,4.491,3.322,7.665,8.05,7.665
			C234.388,110.692,237.711,107.479,237.711,103.028z"/>
		<path fill="#F55B30" d="M266.13,104.188h-18.315c0.554,4.026,3.748,6.659,8.135,6.659c2.769,0,5.196-0.929,6.942-2.593
			l1.832,1.742c-2.13,2.129-5.282,3.368-9.03,3.368c-6.602,0-11.16-4.219-11.16-10.297c0-6.077,4.6-10.258,11.117-10.297
			C262.893,92.769,266.471,97.298,266.13,104.188z M263.148,101.789c-0.213-3.949-3.109-6.503-7.497-6.503
			c-4.302,0-7.368,2.554-7.837,6.503H263.148z"/>
		<path fill="#F55B30" d="M282.433,92.769v2.942c-4.728-0.078-7.667,2.593-8.05,6.697v10.839h-3.323V92.885h3.323v4.53
			C275.873,94.434,278.642,92.808,282.433,92.769z"/>
		<path fill="#F55B30" d="M289.958,87.04c0,1.162-0.938,2.052-2.173,2.052s-2.172-0.89-2.172-2.052c0-1.2,0.937-2.051,2.172-2.051
			S289.958,85.84,289.958,87.04z M289.446,92.885v20.363h-3.279V92.885H289.446z"/>
		<path fill="#F55B30" d="M316.803,100.705v12.543h-3.322v-11.769c0-3.639-2.386-5.807-6.346-5.807
			c-4.43,0.039-7.156,2.71-7.54,6.659v10.917h-3.322V92.885h3.322v4.491c1.576-3.098,4.6-4.568,8.689-4.607
			C313.65,92.769,316.803,95.75,316.803,100.705z"/>
		<path fill="#F55B30" d="M329.505,95.286c-2.513,0-4.43,0.813-4.43,2.748c0,4.608,12.522,2.246,12.522,9.563
			c0,3.987-3.918,5.768-8.221,5.768c-3.195,0-6.474-1.006-8.604-2.865l1.278-2.206c1.917,1.626,4.813,2.594,7.454,2.594
			s4.771-0.929,4.813-2.981c0.127-4.955-12.438-2.439-12.395-9.639c0-3.872,3.706-5.536,7.795-5.536
			c2.683,0,5.281,0.735,7.155,1.858l-1.278,2.322C333.85,95.905,331.592,95.286,329.505,95.286z"/>
		<path fill="#F55B30" d="M361.98,92.885v20.363h-3.322v-4.607c-1.491,3.174-4.472,4.685-8.519,4.723
			c-5.239,0-8.391-3.02-8.391-7.936V92.885h3.323v11.769c0,3.639,2.342,5.807,6.218,5.807c4.643-0.078,7.369-3.174,7.369-7.588
			v-9.988H361.98z"/>
		<path fill="#F55B30" d="M380.225,92.769v2.942c-4.728-0.078-7.667,2.593-8.051,6.697v10.839h-3.322V92.885h3.322v4.53
			C373.665,94.434,376.434,92.808,380.225,92.769z"/>
		<path fill="#F55B30" d="M398.244,113.248v-3.174c-1.789,2.206-4.643,3.29-8.221,3.29c-4.643,0-7.624-2.671-7.624-6.155
			c0-3.561,3.109-5.807,8.391-5.845h7.368v-1.277c0-2.981-2.044-4.8-6.005-4.8c-2.47,0-4.77,0.852-7.113,2.361l-1.406-2.129
			c2.897-1.742,5.324-2.749,9.158-2.749c5.537,0,8.604,2.671,8.647,7.007l0.042,13.471H398.244z M398.201,106.241v-2.478h-6.985
			c-3.749,0-5.708,1.045-5.708,3.329c0,2.245,2.002,3.755,5.154,3.755C394.453,110.847,397.35,109.144,398.201,106.241z"/>
		<path fill="#F55B30" d="M428.479,100.705v12.543h-3.323v-11.769c0-3.639-2.385-5.807-6.346-5.807
			c-4.43,0.039-7.156,2.71-7.539,6.659v10.917h-3.323V92.885h3.323v4.491c1.576-3.098,4.6-4.568,8.689-4.607
			C425.327,92.769,428.479,95.75,428.479,100.705z"/>
		<path fill="#F55B30" d="M444.409,95.479c-4.643,0-7.965,3.097-7.965,7.587c0,4.53,3.322,7.626,7.965,7.626
			c2.939,0,5.367-0.929,6.943-2.632l1.917,1.78c-2.002,2.207-5.111,3.522-8.987,3.522c-6.516,0-11.117-4.219-11.117-10.297
			c0-6.039,4.643-10.297,11.117-10.297c3.621,0,6.602,1.123,8.647,3.02l-1.832,2.09C449.393,96.37,447.135,95.479,444.409,95.479z"
			/>
		<path fill="#F55B30" d="M477.399,104.188h-18.315c0.554,4.026,3.748,6.659,8.135,6.659c2.769,0,5.197-0.929,6.943-2.593
			l1.832,1.742c-2.13,2.129-5.281,3.368-9.03,3.368c-6.602,0-11.159-4.219-11.159-10.297c0-6.077,4.6-10.258,11.117-10.297
			C474.163,92.769,477.74,97.298,477.399,104.188z M474.418,101.789c-0.213-3.949-3.109-6.503-7.496-6.503
			c-4.302,0-7.369,2.554-7.837,6.503H474.418z"/>
	</g>
</g>
</svg>
